<svg version="1.2" xmlns="http://www.w3.org/2000/svg" viewBox="0 0 152 165" width="152" height="165">
	<title>2 number-svg</title>
	<defs>
		<clipPath clipPathUnits="userSpaceOnUse" id="cp1">
			<path d="m12 1h123v162h-123zm116.95 122.89h-56.16v-1.02l10.87-9.75q14.11-12.79 23.56-22.85 9.44-10.15 14.12-20.21 4.77-10.15 4.77-23.05 0-11.68-6.09-20.82-6.1-9.24-17.27-14.53-11.07-5.28-26.2-5.28-14.73 0-24.99 3.46-10.26 3.45-17.77 8.93-7.52 5.39-14.22 11.38l22.04 25.8q9.04-7.82 16.15-11.79 7.21-4.06 14.22-4.06 5.79 0 10.05 2.95 4.27 2.94 4.27 9.54 0 5.39-2.54 10.36-2.54 4.98-8.84 12.09-6.19 7.11-17.47 18.89l-36.25 36.66v26.41h107.75z"/>
		</clipPath>
	</defs>
	<style>
		.s0 { mix-blend-mode: multiply;fill: #4d84f3 } 
	</style>
	<g id="Layer" style="opacity: .3">
		<g id="Clip-Path" clip-path="url(#cp1)">
			<path id="Layer" class="s0" d="m129 157v5.4h5.3v-5.4zm-107.7 0h-5.4v5.4h5.4zm0-26.4l-3.9-3.8-1.5 1.6v2.2zm36.3-36.7l3.8 3.8v-0.1zm17.5-18.9l-4-3.5zm-17.2-30.9l2.6 4.7zm-16.1 11.8l-4.1 3.5 3.5 4.1 4.1-3.5zm-22-25.8l-3.6-4.1-3.9 3.6 3.4 3.9zm14.2-11.3l3.1 4.3h0.1zm68.9-7.1l-2.3 4.9zm17.3 14.5l-4.5 2.9v0.1zm1.3 43.8l-4.8-2.2zm-14.2 20.2l4 3.7zm-23.6 22.8l3.6 4zm-10.8 9.7l-3.6-4-1.8 1.6v2.4zm0 1.1h-5.4v5.3h5.4zm56.1 0h5.4v-5.3h-5.4zm0 27.7h-107.7v10.7h107.7zm-102.3 5.4v-26.4h-10.8v26.4zm-1.5-22.6l36.2-36.7-7.6-7.5-36.3 36.6zm36.3-36.7q11.4-11.8 17.7-19.1l-8.1-7q-6.1 6.9-17.3 18.7zm17.6-19.1c4.3-4.9 7.6-9.3 9.6-13.2l-9.6-4.9c-1.4 2.8-4 6.4-8.1 11zm9.6-13.2c2.1-4.1 3.2-8.3 3.2-12.8h-10.8c0 2.7-0.6 5.3-1.9 7.9zm3.1-12.8c0-5.6-1.9-10.7-6.6-14l-6.1 8.9c1 0.7 1.9 1.9 1.9 5.1zm-6.6-14c-3.8-2.6-8.2-3.9-13.1-3.9v10.8c2.9 0 5.2 0.7 7 2zm-13.1-3.9c-5.7 0-11.4 1.7-16.8 4.7l5.2 9.4c4.2-2.3 8-3.4 11.6-3.4zm-16.8 4.8c-5.2 2.9-10.9 7-17.1 12.4l7.1 8.1c5.8-5.1 10.9-8.7 15.2-11.1zm-9.4 12.9l-22.1-25.7-8.1 6.9 22 25.8zm-22.5-18.3q6.4-5.8 13.7-11l-6.2-8.7q-7.8 5.5-14.7 11.7zm13.8-11c4.5-3.3 9.9-6.1 16.3-8.2l-3.4-10.2c-7.3 2.5-13.7 5.7-19.2 9.7zm16.3-8.2c6.1-2.1 13.8-3.2 23.3-3.2v-10.7c-10.3 0-19.2 1.2-26.7 3.7zm23.2-3.2c9.5 0 17.4 1.7 23.9 4.8l4.6-9.7c-8.2-3.9-17.8-5.8-28.5-5.8zm23.9 4.8c6.7 3.1 11.6 7.3 15.1 12.6l9-5.9c-4.7-7.1-11.2-12.6-19.5-16.5zm15.1 12.7c3.4 5.1 5.2 11 5.2 17.8h10.8c0-8.8-2.4-16.7-7-23.8zm5.1 17.9c0 7.9-1.4 14.8-4.2 20.7l9.7 4.6c3.6-7.6 5.3-16.1 5.3-25.3zm-4.3 20.8c-2.8 6-7.1 12.3-13.2 18.8l7.9 7.3c6.6-7.1 11.7-14.3 15.1-21.6zm-13.2 18.8q-9.2 9.8-23.2 22.5l7.2 8q14.2-12.9 23.9-23.2zm-23.3 22.6l-10.8 9.7 7.1 8 10.9-9.7zm-12.7 13.7v1h10.8v-1zm5.4 6.4h56.1v-10.7h-56.1zm50.8-5.4v33.1h10.7v-33.1z"/>
		</g>
	</g>
</svg>