<svg width="144" height="157" viewBox="0 0 144 157" fill="none" xmlns="http://www.w3.org/2000/svg">
<g style="mix-blend-mode:multiply" opacity="0.35">
<mask id="path-1-outside-1_9993_1541" maskUnits="userSpaceOnUse" x="7" y="3" width="102" height="160" fill="black">
<rect fill="white" x="7" y="3" width="102" height="160"/>
<path d="M102.672 157H61.9453V83.5703C61.9453 82.2161 61.9453 79.7448 61.9453 76.1562C61.9453 72.5 61.9792 68.4714 62.0469 64.0703C62.1823 59.6693 62.3516 55.7083 62.5547 52.1875C60.7943 54.2865 59.1354 56.0807 57.5781 57.5703C56.0885 59.0599 54.6328 60.4479 53.2109 61.7344L36.3516 75.6484L15.5312 50.0547L66.5156 8.51562H102.672V157Z"/>
</mask>
<path d="M102.672 157V162.375H108.047V157H102.672ZM61.9453 157H56.5701V162.375H61.9453V157ZM62.0469 64.0703L56.6742 63.905L56.6729 63.9463L56.6723 63.9876L62.0469 64.0703ZM62.5547 52.1875L67.921 52.4971L68.8548 36.3113L58.4363 48.7333L62.5547 52.1875ZM57.5781 57.5703L53.8627 53.686L53.8195 53.7272L53.7773 53.7695L57.5781 57.5703ZM53.2109 61.7344L56.6324 65.8801L56.7266 65.8023L56.8172 65.7203L53.2109 61.7344ZM36.3516 75.6484L32.1818 79.0405L35.5979 83.2398L39.773 79.7941L36.3516 75.6484ZM15.5312 50.0547L12.1361 45.8875L7.972 49.2801L11.3615 53.4467L15.5312 50.0547ZM66.5156 8.51562V3.14042H64.6031L63.1204 4.34843L66.5156 8.51562ZM102.672 8.51562H108.047V3.14042H102.672V8.51562ZM102.672 151.625H61.9453V162.375H102.672V151.625ZM67.3205 157V83.5703H56.5701V157H67.3205ZM67.3205 83.5703C67.3205 83.5677 67.3205 83.565 67.3205 83.5624C67.3205 83.5597 67.3205 83.5571 67.3205 83.5544C67.3205 83.5517 67.3205 83.5491 67.3205 83.5464C67.3205 83.5437 67.3205 83.541 67.3205 83.5384C67.3205 83.5357 67.3205 83.533 67.3205 83.5303C67.3205 83.5276 67.3205 83.5249 67.3205 83.5222C67.3205 83.5195 67.3205 83.5168 67.3205 83.5141C67.3205 83.5114 67.3205 83.5087 67.3205 83.506C67.3205 83.5033 67.3205 83.5006 67.3205 83.4979C67.3205 83.4951 67.3205 83.4924 67.3205 83.4897C67.3205 83.487 67.3205 83.4842 67.3205 83.4815C67.3205 83.4787 67.3205 83.476 67.3205 83.4733C67.3205 83.4705 67.3205 83.4678 67.3205 83.465C67.3205 83.4622 67.3205 83.4595 67.3205 83.4567C67.3205 83.454 67.3205 83.4512 67.3205 83.4484C67.3205 83.4456 67.3205 83.4429 67.3205 83.4401C67.3205 83.4373 67.3205 83.4345 67.3205 83.4317C67.3205 83.4289 67.3205 83.4261 67.3205 83.4233C67.3205 83.4205 67.3205 83.4177 67.3205 83.4149C67.3205 83.4121 67.3205 83.4093 67.3205 83.4065C67.3205 83.4037 67.3205 83.4009 67.3205 83.398C67.3205 83.3952 67.3205 83.3924 67.3205 83.3896C67.3205 83.3867 67.3205 83.3839 67.3205 83.3811C67.3205 83.3782 67.3205 83.3754 67.3205 83.3725C67.3205 83.3697 67.3205 83.3668 67.3205 83.364C67.3205 83.3611 67.3205 83.3582 67.3205 83.3554C67.3205 83.3525 67.3205 83.3496 67.3205 83.3468C67.3205 83.3439 67.3205 83.341 67.3205 83.3381C67.3205 83.3352 67.3205 83.3323 67.3205 83.3295C67.3205 83.3266 67.3205 83.3237 67.3205 83.3208C67.3205 83.3179 67.3205 83.315 67.3205 83.3121C67.3205 83.3091 67.3205 83.3062 67.3205 83.3033C67.3205 83.3004 67.3205 83.2975 67.3205 83.2945C67.3205 83.2916 67.3205 83.2887 67.3205 83.2858C67.3205 83.2828 67.3205 83.2799 67.3205 83.2769C67.3205 83.274 67.3205 83.2711 67.3205 83.2681C67.3205 83.2651 67.3205 83.2622 67.3205 83.2592C67.3205 83.2563 67.3205 83.2533 67.3205 83.2503C67.3205 83.2474 67.3205 83.2444 67.3205 83.2414C67.3205 83.2384 67.3205 83.2355 67.3205 83.2325C67.3205 83.2295 67.3205 83.2265 67.3205 83.2235C67.3205 83.2205 67.3205 83.2175 67.3205 83.2145C67.3205 83.2115 67.3205 83.2085 67.3205 83.2055C67.3205 83.2025 67.3205 83.1995 67.3205 83.1964C67.3205 83.1934 67.3205 83.1904 67.3205 83.1874C67.3205 83.1843 67.3205 83.1813 67.3205 83.1783C67.3205 83.1752 67.3205 83.1722 67.3205 83.1691C67.3205 83.1661 67.3205 83.1631 67.3205 83.16C67.3205 83.1569 67.3205 83.1539 67.3205 83.1508C67.3205 83.1478 67.3205 83.1447 67.3205 83.1416C67.3205 83.1385 67.3205 83.1355 67.3205 83.1324C67.3205 83.1293 67.3205 83.1262 67.3205 83.1231C67.3205 83.1201 67.3205 83.117 67.3205 83.1139C67.3205 83.1108 67.3205 83.1077 67.3205 83.1046C67.3205 83.1015 67.3205 83.0983 67.3205 83.0952C67.3205 83.0921 67.3205 83.089 67.3205 83.0859C67.3205 83.0828 67.3205 83.0796 67.3205 83.0765C67.3205 83.0734 67.3205 83.0702 67.3205 83.0671C67.3205 83.064 67.3205 83.0608 67.3205 83.0577C67.3205 83.0545 67.3205 83.0514 67.3205 83.0482C67.3205 83.0451 67.3205 83.0419 67.3205 83.0387C67.3205 83.0356 67.3205 83.0324 67.3205 83.0292C67.3205 83.026 67.3205 83.0229 67.3205 83.0197C67.3205 83.0165 67.3205 83.0133 67.3205 83.0101C67.3205 83.0069 67.3205 83.0037 67.3205 83.0005C67.3205 82.9973 67.3205 82.9941 67.3205 82.9909C67.3205 82.9877 67.3205 82.9845 67.3205 82.9813C67.3205 82.9781 67.3205 82.9749 67.3205 82.9716C67.3205 82.9684 67.3205 82.9652 67.3205 82.962C67.3205 82.9587 67.3205 82.9555 67.3205 82.9522C67.3205 82.949 67.3205 82.9458 67.3205 82.9425C67.3205 82.9393 67.3205 82.936 67.3205 82.9327C67.3205 82.9295 67.3205 82.9262 67.3205 82.923C67.3205 82.9197 67.3205 82.9164 67.3205 82.9131C67.3205 82.9099 67.3205 82.9066 67.3205 82.9033C67.3205 82.9 67.3205 82.8967 67.3205 82.8934C67.3205 82.8901 67.3205 82.8868 67.3205 82.8835C67.3205 82.8802 67.3205 82.8769 67.3205 82.8736C67.3205 82.8703 67.3205 82.867 67.3205 82.8637C67.3205 82.8604 67.3205 82.857 67.3205 82.8537C67.3205 82.8504 67.3205 82.8471 67.3205 82.8437C67.3205 82.8404 67.3205 82.8371 67.3205 82.8337C67.3205 82.8304 67.3205 82.827 67.3205 82.8237C67.3205 82.8203 67.3205 82.817 67.3205 82.8136C67.3205 82.8102 67.3205 82.8069 67.3205 82.8035C67.3205 82.8001 67.3205 82.7968 67.3205 82.7934C67.3205 82.79 67.3205 82.7866 67.3205 82.7832C67.3205 82.7798 67.3205 82.7765 67.3205 82.7731C67.3205 82.7697 67.3205 82.7663 67.3205 82.7629C67.3205 82.7595 67.3205 82.7561 67.3205 82.7526C67.3205 82.7492 67.3205 82.7458 67.3205 82.7424C67.3205 82.739 67.3205 82.7355 67.3205 82.7321C67.3205 82.7287 67.3205 82.7253 67.3205 82.7218C67.3205 82.7184 67.3205 82.7149 67.3205 82.7115C67.3205 82.708 67.3205 82.7046 67.3205 82.7011C67.3205 82.6977 67.3205 82.6942 67.3205 82.6908C67.3205 82.6873 67.3205 82.6838 67.3205 82.6804C67.3205 82.6769 67.3205 82.6734 67.3205 82.6699C67.3205 82.6665 67.3205 82.663 67.3205 82.6595C67.3205 82.656 67.3205 82.6525 67.3205 82.649C67.3205 82.6455 67.3205 82.642 67.3205 82.6385C67.3205 82.635 67.3205 82.6315 67.3205 82.628C67.3205 82.6245 67.3205 82.6209 67.3205 82.6174C67.3205 82.6139 67.3205 82.6104 67.3205 82.6068C67.3205 82.6033 67.3205 82.5998 67.3205 82.5962C67.3205 82.5927 67.3205 82.5891 67.3205 82.5856C67.3205 82.582 67.3205 82.5785 67.3205 82.5749C67.3205 82.5714 67.3205 82.5678 67.3205 82.5643C67.3205 82.5607 67.3205 82.5571 67.3205 82.5535C67.3205 82.55 67.3205 82.5464 67.3205 82.5428C67.3205 82.5392 67.3205 82.5356 67.3205 82.532C67.3205 82.5285 67.3205 82.5249 67.3205 82.5213C67.3205 82.5177 67.3205 82.5141 67.3205 82.5105C67.3205 82.5068 67.3205 82.5032 67.3205 82.4996C67.3205 82.496 67.3205 82.4924 67.3205 82.4888C67.3205 82.4851 67.3205 82.4815 67.3205 82.4779C67.3205 82.4742 67.3205 82.4706 67.3205 82.467C67.3205 82.4633 67.3205 82.4597 67.3205 82.456C67.3205 82.4524 67.3205 82.4487 67.3205 82.445C67.3205 82.4414 67.3205 82.4377 67.3205 82.4341C67.3205 82.4304 67.3205 82.4267 67.3205 82.423C67.3205 82.4194 67.3205 82.4157 67.3205 82.412C67.3205 82.4083 67.3205 82.4046 67.3205 82.4009C67.3205 82.3972 67.3205 82.3935 67.3205 82.3898C67.3205 82.3861 67.3205 82.3824 67.3205 82.3787C67.3205 82.375 67.3205 82.3713 67.3205 82.3676C67.3205 82.3639 67.3205 82.3601 67.3205 82.3564C67.3205 82.3527 67.3205 82.349 67.3205 82.3452C67.3205 82.3415 67.3205 82.3377 67.3205 82.334C67.3205 82.3303 67.3205 82.3265 67.3205 82.3227C67.3205 82.319 67.3205 82.3152 67.3205 82.3115C67.3205 82.3077 67.3205 82.3039 67.3205 82.3002C67.3205 82.2964 67.3205 82.2926 67.3205 82.2889C67.3205 82.2851 67.3205 82.2813 67.3205 82.2775C67.3205 82.2737 67.3205 82.2699 67.3205 82.2661C67.3205 82.2623 67.3205 82.2585 67.3205 82.2547C67.3205 82.2509 67.3205 82.2471 67.3205 82.2433C67.3205 82.2395 67.3205 82.2357 67.3205 82.2319C67.3205 82.228 67.3205 82.2242 67.3205 82.2204C67.3205 82.2166 67.3205 82.2127 67.3205 82.2089C67.3205 82.205 67.3205 82.2012 67.3205 82.1974C67.3205 82.1935 67.3205 82.1897 67.3205 82.1858C67.3205 82.1819 67.3205 82.1781 67.3205 82.1742C67.3205 82.1704 67.3205 82.1665 67.3205 82.1626C67.3205 82.1587 67.3205 82.1549 67.3205 82.151C67.3205 82.1471 67.3205 82.1432 67.3205 82.1393C67.3205 82.1354 67.3205 82.1316 67.3205 82.1277C67.3205 82.1238 67.3205 82.1199 67.3205 82.1159C67.3205 82.112 67.3205 82.1081 67.3205 82.1042C67.3205 82.1003 67.3205 82.0964 67.3205 82.0925C67.3205 82.0885 67.3205 82.0846 67.3205 82.0807C67.3205 82.0767 67.3205 82.0728 67.3205 82.0689C67.3205 82.0649 67.3205 82.061 67.3205 82.057C67.3205 82.0531 67.3205 82.0491 67.3205 82.0452C67.3205 82.0412 67.3205 82.0373 67.3205 82.0333C67.3205 82.0293 67.3205 82.0254 67.3205 82.0214C67.3205 82.0174 67.3205 82.0134 67.3205 82.0094C67.3205 82.0055 67.3205 82.0015 67.3205 81.9975C67.3205 81.9935 67.3205 81.9895 67.3205 81.9855C67.3205 81.9815 67.3205 81.9775 67.3205 81.9735C67.3205 81.9695 67.3205 81.9655 67.3205 81.9614C67.3205 81.9574 67.3205 81.9534 67.3205 81.9494C67.3205 81.9454 67.3205 81.9413 67.3205 81.9373C67.3205 81.9333 67.3205 81.9292 67.3205 81.9252C67.3205 81.9211 67.3205 81.9171 67.3205 81.913C67.3205 81.909 67.3205 81.9049 67.3205 81.9009C67.3205 81.8968 67.3205 81.8927 67.3205 81.8887C67.3205 81.8846 67.3205 81.8805 67.3205 81.8765C67.3205 81.8724 67.3205 81.8683 67.3205 81.8642C67.3205 81.8601 67.3205 81.856 67.3205 81.8519C67.3205 81.8478 67.3205 81.8438 67.3205 81.8396C67.3205 81.8355 67.3205 81.8314 67.3205 81.8273C67.3205 81.8232 67.3205 81.8191 67.3205 81.815C67.3205 81.8109 67.3205 81.8067 67.3205 81.8026C67.3205 81.7985 67.3205 81.7944 67.3205 81.7902C67.3205 81.7861 67.3205 81.7819 67.3205 81.7778C67.3205 81.7736 67.3205 81.7695 67.3205 81.7653C67.3205 81.7612 67.3205 81.757 67.3205 81.7529C67.3205 81.7487 67.3205 81.7445 67.3205 81.7404C67.3205 81.7362 67.3205 81.732 67.3205 81.7278C67.3205 81.7237 67.3205 81.7195 67.3205 81.7153C67.3205 81.7111 67.3205 81.7069 67.3205 81.7027C67.3205 81.6985 67.3205 81.6943 67.3205 81.6901C67.3205 81.6859 67.3205 81.6817 67.3205 81.6775C67.3205 81.6733 67.3205 81.6691 67.3205 81.6648C67.3205 81.6606 67.3205 81.6564 67.3205 81.6522C67.3205 81.6479 67.3205 81.6437 67.3205 81.6395C67.3205 81.6352 67.3205 81.631 67.3205 81.6267C67.3205 81.6225 67.3205 81.6182 67.3205 81.614C67.3205 81.6097 67.3205 81.6055 67.3205 81.6012C67.3205 81.5969 67.3205 81.5927 67.3205 81.5884C67.3205 81.5841 67.3205 81.5798 67.3205 81.5756C67.3205 81.5713 67.3205 81.567 67.3205 81.5627C67.3205 81.5584 67.3205 81.5541 67.3205 81.5498C67.3205 81.5455 67.3205 81.5412 67.3205 81.5369C67.3205 81.5326 67.3205 81.5283 67.3205 81.524C67.3205 81.5197 67.3205 81.5153 67.3205 81.511C67.3205 81.5067 67.3205 81.5024 67.3205 81.498C67.3205 81.4937 67.3205 81.4894 67.3205 81.485C67.3205 81.4807 67.3205 81.4763 67.3205 81.472C67.3205 81.4676 67.3205 81.4633 67.3205 81.4589C67.3205 81.4546 67.3205 81.4502 67.3205 81.4458C67.3205 81.4415 67.3205 81.4371 67.3205 81.4327C67.3205 81.4284 67.3205 81.424 67.3205 81.4196C67.3205 81.4152 67.3205 81.4108 67.3205 81.4064C67.3205 81.402 67.3205 81.3976 67.3205 81.3932C67.3205 81.3888 67.3205 81.3844 67.3205 81.38C67.3205 81.3756 67.3205 81.3712 67.3205 81.3668C67.3205 81.3624 67.3205 81.3579 67.3205 81.3535C67.3205 81.3491 67.3205 81.3447 67.3205 81.3402C67.3205 81.3358 67.3205 81.3314 67.3205 81.3269C67.3205 81.3225 67.3205 81.318 67.3205 81.3136C67.3205 81.3091 67.3205 81.3047 67.3205 81.3002C67.3205 81.2957 67.3205 81.2913 67.3205 81.2868C67.3205 81.2823 67.3205 81.2779 67.3205 81.2734C67.3205 81.2689 67.3205 81.2644 67.3205 81.2599C67.3205 81.2555 67.3205 81.251 67.3205 81.2465C67.3205 81.242 67.3205 81.2375 67.3205 81.233C67.3205 81.2285 67.3205 81.224 67.3205 81.2195C67.3205 81.2149 67.3205 81.2104 67.3205 81.2059C67.3205 81.2014 67.3205 81.1969 67.3205 81.1923C67.3205 81.1878 67.3205 81.1833 67.3205 81.1787C67.3205 81.1742 67.3205 81.1697 67.3205 81.1651C67.3205 81.1606 67.3205 81.156 67.3205 81.1515C67.3205 81.1469 67.3205 81.1423 67.3205 81.1378C67.3205 81.1332 67.3205 81.1287 67.3205 81.1241C67.3205 81.1195 67.3205 81.1149 67.3205 81.1104C67.3205 81.1058 67.3205 81.1012 67.3205 81.0966C67.3205 81.092 67.3205 81.0874 67.3205 81.0828C67.3205 81.0782 67.3205 81.0736 67.3205 81.069C67.3205 81.0644 67.3205 81.0598 67.3205 81.0552C67.3205 81.0506 67.3205 81.046 67.3205 81.0413C67.3205 81.0367 67.3205 81.0321 67.3205 81.0275C67.3205 81.0228 67.3205 81.0182 67.3205 81.0136C67.3205 81.0089 67.3205 81.0043 67.3205 80.9996C67.3205 80.995 67.3205 80.9903 67.3205 80.9857C67.3205 80.981 67.3205 80.9764 67.3205 80.9717C67.3205 80.967 67.3205 80.9624 67.3205 80.9577C67.3205 80.953 67.3205 80.9483 67.3205 80.9436C67.3205 80.939 67.3205 80.9343 67.3205 80.9296C67.3205 80.9249 67.3205 80.9202 67.3205 80.9155C67.3205 80.9108 67.3205 80.9061 67.3205 80.9014C67.3205 80.8967 67.3205 80.892 67.3205 80.8873C67.3205 80.8825 67.3205 80.8778 67.3205 80.8731C67.3205 80.8684 67.3205 80.8636 67.3205 80.8589C67.3205 80.8542 67.3205 80.8494 67.3205 80.8447C67.3205 80.84 67.3205 80.8352 67.3205 80.8305C67.3205 80.8257 67.3205 80.821 67.3205 80.8162C67.3205 80.8114 67.3205 80.8067 67.3205 80.8019C67.3205 80.7971 67.3205 80.7924 67.3205 80.7876C67.3205 80.7828 67.3205 80.778 67.3205 80.7733C67.3205 80.7685 67.3205 80.7637 67.3205 80.7589C67.3205 80.7541 67.3205 80.7493 67.3205 80.7445C67.3205 80.7397 67.3205 80.7349 67.3205 80.7301C67.3205 80.7253 67.3205 80.7205 67.3205 80.7156C67.3205 80.7108 67.3205 80.706 67.3205 80.7012C67.3205 80.6963 67.3205 80.6915 67.3205 80.6867C67.3205 80.6818 67.3205 80.677 67.3205 80.6722C67.3205 80.6673 67.3205 80.6625 67.3205 80.6576C67.3205 80.6528 67.3205 80.6479 67.3205 80.643C67.3205 80.6382 67.3205 80.6333 67.3205 80.6284C67.3205 80.6236 67.3205 80.6187 67.3205 80.6138C67.3205 80.609 67.3205 80.6041 67.3205 80.5992C67.3205 80.5943 67.3205 80.5894 67.3205 80.5845C67.3205 80.5796 67.3205 80.5747 67.3205 80.5698C67.3205 80.5649 67.3205 80.56 67.3205 80.5551C67.3205 80.5502 67.3205 80.5453 67.3205 80.5403C67.3205 80.5354 67.3205 80.5305 67.3205 80.5256C67.3205 80.5206 67.3205 80.5157 67.3205 80.5108C67.3205 80.5058 67.3205 80.5009 67.3205 80.4959C67.3205 80.491 67.3205 80.486 67.3205 80.4811C67.3205 80.4761 67.3205 80.4712 67.3205 80.4662C67.3205 80.4612 67.3205 80.4563 67.3205 80.4513C67.3205 80.4463 67.3205 80.4414 67.3205 80.4364C67.3205 80.4314 67.3205 80.4264 67.3205 80.4214C67.3205 80.4164 67.3205 80.4114 67.3205 80.4064C67.3205 80.4014 67.3205 80.3964 67.3205 80.3914C67.3205 80.3864 67.3205 80.3814 67.3205 80.3764C67.3205 80.3714 67.3205 80.3664 67.3205 80.3614C67.3205 80.3563 67.3205 80.3513 67.3205 80.3463C67.3205 80.3412 67.3205 80.3362 67.3205 80.3312C67.3205 80.3261 67.3205 80.3211 67.3205 80.316C67.3205 80.311 67.3205 80.3059 67.3205 80.3009C67.3205 80.2958 67.3205 80.2908 67.3205 80.2857C67.3205 80.2806 67.3205 80.2756 67.3205 80.2705C67.3205 80.2654 67.3205 80.2603 67.3205 80.2552C67.3205 80.2502 67.3205 80.2451 67.3205 80.24C67.3205 80.2349 67.3205 80.2298 67.3205 80.2247C67.3205 80.2196 67.3205 80.2145 67.3205 80.2094C67.3205 80.2043 67.3205 80.1992 67.3205 80.1941C67.3205 80.1889 67.3205 80.1838 67.3205 80.1787C67.3205 80.1736 67.3205 80.1684 67.3205 80.1633C67.3205 80.1582 67.3205 80.153 67.3205 80.1479C67.3205 80.1427 67.3205 80.1376 67.3205 80.1324C67.3205 80.1273 67.3205 80.1221 67.3205 80.117C67.3205 80.1118 67.3205 80.1067 67.3205 80.1015C67.3205 80.0963 67.3205 80.0912 67.3205 80.086C67.3205 80.0808 67.3205 80.0756 67.3205 80.0704C67.3205 80.0652 67.3205 80.0601 67.3205 80.0549C67.3205 80.0497 67.3205 80.0445 67.3205 80.0393C67.3205 80.0341 67.3205 80.0289 67.3205 80.0237C67.3205 80.0184 67.3205 80.0132 67.3205 80.008C67.3205 80.0028 67.3205 79.9976 67.3205 79.9923C67.3205 79.9871 67.3205 79.9819 67.3205 79.9766C67.3205 79.9714 67.3205 79.9662 67.3205 79.9609C67.3205 79.9557 67.3205 79.9504 67.3205 79.9452C67.3205 79.9399 67.3205 79.9347 67.3205 79.9294C67.3205 79.9241 67.3205 79.9189 67.3205 79.9136C67.3205 79.9083 67.3205 79.9031 67.3205 79.8978C67.3205 79.8925 67.3205 79.8872 67.3205 79.8819C67.3205 79.8767 67.3205 79.8714 67.3205 79.8661C67.3205 79.8608 67.3205 79.8555 67.3205 79.8502C67.3205 79.8449 67.3205 79.8396 67.3205 79.8342C67.3205 79.8289 67.3205 79.8236 67.3205 79.8183C67.3205 79.813 67.3205 79.8076 67.3205 79.8023C67.3205 79.797 67.3205 79.7916 67.3205 79.7863C67.3205 79.781 67.3205 79.7756 67.3205 79.7703C67.3205 79.7649 67.3205 79.7596 67.3205 79.7542C67.3205 79.7489 67.3205 79.7435 67.3205 79.7382C67.3205 79.7328 67.3205 79.7274 67.3205 79.722C67.3205 79.7167 67.3205 79.7113 67.3205 79.7059C67.3205 79.7005 67.3205 79.6951 67.3205 79.6898C67.3205 79.6844 67.3205 79.679 67.3205 79.6736C67.3205 79.6682 67.3205 79.6628 67.3205 79.6574C67.3205 79.652 67.3205 79.6466 67.3205 79.6411C67.3205 79.6357 67.3205 79.6303 67.3205 79.6249C67.3205 79.6195 67.3205 79.614 67.3205 79.6086C67.3205 79.6032 67.3205 79.5977 67.3205 79.5923C67.3205 79.5869 67.3205 79.5814 67.3205 79.576C67.3205 79.5705 67.3205 79.5651 67.3205 79.5596C67.3205 79.5541 67.3205 79.5487 67.3205 79.5432C67.3205 79.5377 67.3205 79.5323 67.3205 79.5268C67.3205 79.5213 67.3205 79.5158 67.3205 79.5104C67.3205 79.5049 67.3205 79.4994 67.3205 79.4939C67.3205 79.4884 67.3205 79.4829 67.3205 79.4774C67.3205 79.4719 67.3205 79.4664 67.3205 79.4609C67.3205 79.4554 67.3205 79.4499 67.3205 79.4444C67.3205 79.4388 67.3205 79.4333 67.3205 79.4278C67.3205 79.4223 67.3205 79.4167 67.3205 79.4112C67.3205 79.4057 67.3205 79.4001 67.3205 79.3946C67.3205 79.389 67.3205 79.3835 67.3205 79.3779C67.3205 79.3724 67.3205 79.3668 67.3205 79.3613C67.3205 79.3557 67.3205 79.3502 67.3205 79.3446C67.3205 79.339 67.3205 79.3334 67.3205 79.3279C67.3205 79.3223 67.3205 79.3167 67.3205 79.3111C67.3205 79.3055 67.3205 79.3 67.3205 79.2944C67.3205 79.2888 67.3205 79.2832 67.3205 79.2776C67.3205 79.272 67.3205 79.2664 67.3205 79.2607C67.3205 79.2551 67.3205 79.2495 67.3205 79.2439C67.3205 79.2383 67.3205 79.2327 67.3205 79.227C67.3205 79.2214 67.3205 79.2158 67.3205 79.2101C67.3205 79.2045 67.3205 79.1989 67.3205 79.1932C67.3205 79.1876 67.3205 79.1819 67.3205 79.1763C67.3205 79.1706 67.3205 79.1649 67.3205 79.1593C67.3205 79.1536 67.3205 79.148 67.3205 79.1423C67.3205 79.1366 67.3205 79.1309 67.3205 79.1253C67.3205 79.1196 67.3205 79.1139 67.3205 79.1082C67.3205 79.1025 67.3205 79.0968 67.3205 79.0911C67.3205 79.0854 67.3205 79.0797 67.3205 79.074C67.3205 79.0683 67.3205 79.0626 67.3205 79.0569C67.3205 79.0512 67.3205 79.0455 67.3205 79.0398C67.3205 79.034 67.3205 79.0283 67.3205 79.0226C67.3205 79.0168 67.3205 79.0111 67.3205 79.0054C67.3205 78.9996 67.3205 78.9939 67.3205 78.9881C67.3205 78.9824 67.3205 78.9766 67.3205 78.9709C67.3205 78.9651 67.3205 78.9594 67.3205 78.9536C67.3205 78.9478 67.3205 78.9421 67.3205 78.9363C67.3205 78.9305 67.3205 78.9247 67.3205 78.919C67.3205 78.9132 67.3205 78.9074 67.3205 78.9016C67.3205 78.8958 67.3205 78.89 67.3205 78.8842C67.3205 78.8784 67.3205 78.8726 67.3205 78.8668C67.3205 78.861 67.3205 78.8552 67.3205 78.8494C67.3205 78.8436 67.3205 78.8378 67.3205 78.8319C67.3205 78.8261 67.3205 78.8203 67.3205 78.8144C67.3205 78.8086 67.3205 78.8028 67.3205 78.7969C67.3205 78.7911 67.3205 78.7852 67.3205 78.7794C67.3205 78.7735 67.3205 78.7677 67.3205 78.7618C67.3205 78.756 67.3205 78.7501 67.3205 78.7442C67.3205 78.7384 67.3205 78.7325 67.3205 78.7266C67.3205 78.7208 67.3205 78.7149 67.3205 78.709C67.3205 78.7031 67.3205 78.6972 67.3205 78.6913C67.3205 78.6854 67.3205 78.6795 67.3205 78.6736C67.3205 78.6677 67.3205 78.6618 67.3205 78.6559C67.3205 78.65 67.3205 78.6441 67.3205 78.6382C67.3205 78.6323 67.3205 78.6263 67.3205 78.6204C67.3205 78.6145 67.3205 78.6086 67.3205 78.6026C67.3205 78.5967 67.3205 78.5908 67.3205 78.5848C67.3205 78.5789 67.3205 78.5729 67.3205 78.567C67.3205 78.561 67.3205 78.5551 67.3205 78.5491C67.3205 78.5431 67.3205 78.5372 67.3205 78.5312C67.3205 78.5252 67.3205 78.5193 67.3205 78.5133C67.3205 78.5073 67.3205 78.5013 67.3205 78.4953C67.3205 78.4894 67.3205 78.4834 67.3205 78.4774C67.3205 78.4714 67.3205 78.4654 67.3205 78.4594C67.3205 78.4534 67.3205 78.4474 67.3205 78.4413C67.3205 78.4353 67.3205 78.4293 67.3205 78.4233C67.3205 78.4173 67.3205 78.4113 67.3205 78.4052C67.3205 78.3992 67.3205 78.3932 67.3205 78.3871C67.3205 78.3811 67.3205 78.375 67.3205 78.369C67.3205 78.363 67.3205 78.3569 67.3205 78.3509C67.3205 78.3448 67.3205 78.3387 67.3205 78.3327C67.3205 78.3266 67.3205 78.3205 67.3205 78.3145C67.3205 78.3084 67.3205 78.3023 67.3205 78.2962C67.3205 78.2902 67.3205 78.2841 67.3205 78.278C67.3205 78.2719 67.3205 78.2658 67.3205 78.2597C67.3205 78.2536 67.3205 78.2475 67.3205 78.2414C67.3205 78.2353 67.3205 78.2292 67.3205 78.2231C67.3205 78.217 67.3205 78.2109 67.3205 78.2047C67.3205 78.1986 67.3205 78.1925 67.3205 78.1864C67.3205 78.1802 67.3205 78.1741 67.3205 78.1679C67.3205 78.1618 67.3205 78.1557 67.3205 78.1495C67.3205 78.1434 67.3205 78.1372 67.3205 78.1311C67.3205 78.1249 67.3205 78.1187 67.3205 78.1126C67.3205 78.1064 67.3205 78.1002 67.3205 78.0941C67.3205 78.0879 67.3205 78.0817 67.3205 78.0755C67.3205 78.0694 67.3205 78.0632 67.3205 78.057C67.3205 78.0508 67.3205 78.0446 67.3205 78.0384C67.3205 78.0322 67.3205 78.026 67.3205 78.0198C67.3205 78.0136 67.3205 78.0074 67.3205 78.0011C67.3205 77.9949 67.3205 77.9887 67.3205 77.9825C67.3205 77.9763 67.3205 77.97 67.3205 77.9638C67.3205 77.9576 67.3205 77.9513 67.3205 77.9451C67.3205 77.9388 67.3205 77.9326 67.3205 77.9263C67.3205 77.9201 67.3205 77.9138 67.3205 77.9076C67.3205 77.9013 67.3205 77.8951 67.3205 77.8888C67.3205 77.8825 67.3205 77.8763 67.3205 77.87C67.3205 77.8637 67.3205 77.8574 67.3205 77.8511C67.3205 77.8449 67.3205 77.8386 67.3205 77.8323C67.3205 77.826 67.3205 77.8197 67.3205 77.8134C67.3205 77.8071 67.3205 77.8008 67.3205 77.7945C67.3205 77.7882 67.3205 77.7818 67.3205 77.7755C67.3205 77.7692 67.3205 77.7629 67.3205 77.7566C67.3205 77.7502 67.3205 77.7439 67.3205 77.7376C67.3205 77.7312 67.3205 77.7249 67.3205 77.7185C67.3205 77.7122 67.3205 77.7058 67.3205 77.6995C67.3205 77.6931 67.3205 77.6868 67.3205 77.6804C67.3205 77.6741 67.3205 77.6677 67.3205 77.6613C67.3205 77.655 67.3205 77.6486 67.3205 77.6422C67.3205 77.6358 67.3205 77.6294 67.3205 77.6231C67.3205 77.6167 67.3205 77.6103 67.3205 77.6039C67.3205 77.5975 67.3205 77.5911 67.3205 77.5847C67.3205 77.5783 67.3205 77.5719 67.3205 77.5655C67.3205 77.5591 67.3205 77.5526 67.3205 77.5462C67.3205 77.5398 67.3205 77.5334 67.3205 77.5269C67.3205 77.5205 67.3205 77.5141 67.3205 77.5076C67.3205 77.5012 67.3205 77.4948 67.3205 77.4883C67.3205 77.4819 67.3205 77.4754 67.3205 77.469C67.3205 77.4625 67.3205 77.456 67.3205 77.4496C67.3205 77.4431 67.3205 77.4367 67.3205 77.4302C67.3205 77.4237 67.3205 77.4172 67.3205 77.4108C67.3205 77.4043 67.3205 77.3978 67.3205 77.3913C67.3205 77.3848 67.3205 77.3783 67.3205 77.3718C67.3205 77.3653 67.3205 77.3588 67.3205 77.3523C67.3205 77.3458 67.3205 77.3393 67.3205 77.3328C67.3205 77.3263 67.3205 77.3198 67.3205 77.3132C67.3205 77.3067 67.3205 77.3002 67.3205 77.2936C67.3205 77.2871 67.3205 77.2806 67.3205 77.274C67.3205 77.2675 67.3205 77.261 67.3205 77.2544C67.3205 77.2479 67.3205 77.2413 67.3205 77.2347C67.3205 77.2282 67.3205 77.2216 67.3205 77.2151C67.3205 77.2085 67.3205 77.2019 67.3205 77.1954C67.3205 77.1888 67.3205 77.1822 67.3205 77.1756C67.3205 77.169 67.3205 77.1624 67.3205 77.1559C67.3205 77.1493 67.3205 77.1427 67.3205 77.1361C67.3205 77.1295 67.3205 77.1229 67.3205 77.1163C67.3205 77.1096 67.3205 77.103 67.3205 77.0964C67.3205 77.0898 67.3205 77.0832 67.3205 77.0766C67.3205 77.0699 67.3205 77.0633 67.3205 77.0567C67.3205 77.05 67.3205 77.0434 67.3205 77.0368C67.3205 77.0301 67.3205 77.0235 67.3205 77.0168C67.3205 77.0102 67.3205 77.0035 67.3205 76.9968C67.3205 76.9902 67.3205 76.9835 67.3205 76.9769C67.3205 76.9702 67.3205 76.9635 67.3205 76.9568C67.3205 76.9502 67.3205 76.9435 67.3205 76.9368C67.3205 76.9301 67.3205 76.9234 67.3205 76.9167C67.3205 76.91 67.3205 76.9033 67.3205 76.8966C67.3205 76.8899 67.3205 76.8832 67.3205 76.8765C67.3205 76.8698 67.3205 76.8631 67.3205 76.8564C67.3205 76.8497 67.3205 76.8429 67.3205 76.8362C67.3205 76.8295 67.3205 76.8227 67.3205 76.816C67.3205 76.8093 67.3205 76.8025 67.3205 76.7958C67.3205 76.789 67.3205 76.7823 67.3205 76.7755C67.3205 76.7688 67.3205 76.762 67.3205 76.7553C67.3205 76.7485 67.3205 76.7417 67.3205 76.735C67.3205 76.7282 67.3205 76.7214 67.3205 76.7146C67.3205 76.7079 67.3205 76.7011 67.3205 76.6943C67.3205 76.6875 67.3205 76.6807 67.3205 76.6739C67.3205 76.6671 67.3205 76.6603 67.3205 76.6535C67.3205 76.6467 67.3205 76.6399 67.3205 76.6331C67.3205 76.6263 67.3205 76.6195 67.3205 76.6126C67.3205 76.6058 67.3205 76.599 67.3205 76.5922C67.3205 76.5853 67.3205 76.5785 67.3205 76.5717C67.3205 76.5648 67.3205 76.558 67.3205 76.5511C67.3205 76.5443 67.3205 76.5374 67.3205 76.5306C67.3205 76.5237 67.3205 76.5169 67.3205 76.51C67.3205 76.5031 67.3205 76.4963 67.3205 76.4894C67.3205 76.4825 67.3205 76.4757 67.3205 76.4688C67.3205 76.4619 67.3205 76.455 67.3205 76.4481C67.3205 76.4412 67.3205 76.4343 67.3205 76.4274C67.3205 76.4205 67.3205 76.4136 67.3205 76.4067C67.3205 76.3998 67.3205 76.3929 67.3205 76.386C67.3205 76.3791 67.3205 76.3722 67.3205 76.3652C67.3205 76.3583 67.3205 76.3514 67.3205 76.3445C67.3205 76.3375 67.3205 76.3306 67.3205 76.3236C67.3205 76.3167 67.3205 76.3098 67.3205 76.3028C67.3205 76.2959 67.3205 76.2889 67.3205 76.2819C67.3205 76.275 67.3205 76.268 67.3205 76.2611C67.3205 76.2541 67.3205 76.2471 67.3205 76.2402C67.3205 76.2332 67.3205 76.2262 67.3205 76.2192C67.3205 76.2122 67.3205 76.2052 67.3205 76.1983C67.3205 76.1913 67.3205 76.1843 67.3205 76.1773C67.3205 76.1703 67.3205 76.1633 67.3205 76.1562H56.5701C56.5701 76.1633 56.5701 76.1703 56.5701 76.1773C56.5701 76.1843 56.5701 76.1913 56.5701 76.1983C56.5701 76.2052 56.5701 76.2122 56.5701 76.2192C56.5701 76.2262 56.5701 76.2332 56.5701 76.2402C56.5701 76.2471 56.5701 76.2541 56.5701 76.2611C56.5701 76.268 56.5701 76.275 56.5701 76.2819C56.5701 76.2889 56.5701 76.2959 56.5701 76.3028C56.5701 76.3098 56.5701 76.3167 56.5701 76.3236C56.5701 76.3306 56.5701 76.3375 56.5701 76.3445C56.5701 76.3514 56.5701 76.3583 56.5701 76.3652C56.5701 76.3722 56.5701 76.3791 56.5701 76.386C56.5701 76.3929 56.5701 76.3998 56.5701 76.4067C56.5701 76.4136 56.5701 76.4205 56.5701 76.4274C56.5701 76.4343 56.5701 76.4412 56.5701 76.4481C56.5701 76.455 56.5701 76.4619 56.5701 76.4688C56.5701 76.4757 56.5701 76.4825 56.5701 76.4894C56.5701 76.4963 56.5701 76.5031 56.5701 76.51C56.5701 76.5169 56.5701 76.5237 56.5701 76.5306C56.5701 76.5374 56.5701 76.5443 56.5701 76.5511C56.5701 76.558 56.5701 76.5648 56.5701 76.5717C56.5701 76.5785 56.5701 76.5853 56.5701 76.5922C56.5701 76.599 56.5701 76.6058 56.5701 76.6126C56.5701 76.6195 56.5701 76.6263 56.5701 76.6331C56.5701 76.6399 56.5701 76.6467 56.5701 76.6535C56.5701 76.6603 56.5701 76.6671 56.5701 76.6739C56.5701 76.6807 56.5701 76.6875 56.5701 76.6943C56.5701 76.7011 56.5701 76.7079 56.5701 76.7146C56.5701 76.7214 56.5701 76.7282 56.5701 76.735C56.5701 76.7417 56.5701 76.7485 56.5701 76.7553C56.5701 76.762 56.5701 76.7688 56.5701 76.7755C56.5701 76.7823 56.5701 76.789 56.5701 76.7958C56.5701 76.8025 56.5701 76.8093 56.5701 76.816C56.5701 76.8227 56.5701 76.8295 56.5701 76.8362C56.5701 76.8429 56.5701 76.8497 56.5701 76.8564C56.5701 76.8631 56.5701 76.8698 56.5701 76.8765C56.5701 76.8832 56.5701 76.8899 56.5701 76.8966C56.5701 76.9033 56.5701 76.91 56.5701 76.9167C56.5701 76.9234 56.5701 76.9301 56.5701 76.9368C56.5701 76.9435 56.5701 76.9502 56.5701 76.9568C56.5701 76.9635 56.5701 76.9702 56.5701 76.9769C56.5701 76.9835 56.5701 76.9902 56.5701 76.9968C56.5701 77.0035 56.5701 77.0102 56.5701 77.0168C56.5701 77.0235 56.5701 77.0301 56.5701 77.0368C56.5701 77.0434 56.5701 77.05 56.5701 77.0567C56.5701 77.0633 56.5701 77.0699 56.5701 77.0766C56.5701 77.0832 56.5701 77.0898 56.5701 77.0964C56.5701 77.103 56.5701 77.1096 56.5701 77.1163C56.5701 77.1229 56.5701 77.1295 56.5701 77.1361C56.5701 77.1427 56.5701 77.1493 56.5701 77.1559C56.5701 77.1624 56.5701 77.169 56.5701 77.1756C56.5701 77.1822 56.5701 77.1888 56.5701 77.1954C56.5701 77.2019 56.5701 77.2085 56.5701 77.2151C56.5701 77.2216 56.5701 77.2282 56.5701 77.2347C56.5701 77.2413 56.5701 77.2479 56.5701 77.2544C56.5701 77.261 56.5701 77.2675 56.5701 77.274C56.5701 77.2806 56.5701 77.2871 56.5701 77.2936C56.5701 77.3002 56.5701 77.3067 56.5701 77.3132C56.5701 77.3198 56.5701 77.3263 56.5701 77.3328C56.5701 77.3393 56.5701 77.3458 56.5701 77.3523C56.5701 77.3588 56.5701 77.3653 56.5701 77.3718C56.5701 77.3783 56.5701 77.3848 56.5701 77.3913C56.5701 77.3978 56.5701 77.4043 56.5701 77.4108C56.5701 77.4172 56.5701 77.4237 56.5701 77.4302C56.5701 77.4367 56.5701 77.4431 56.5701 77.4496C56.5701 77.456 56.5701 77.4625 56.5701 77.469C56.5701 77.4754 56.5701 77.4819 56.5701 77.4883C56.5701 77.4948 56.5701 77.5012 56.5701 77.5076C56.5701 77.5141 56.5701 77.5205 56.5701 77.5269C56.5701 77.5334 56.5701 77.5398 56.5701 77.5462C56.5701 77.5526 56.5701 77.5591 56.5701 77.5655C56.5701 77.5719 56.5701 77.5783 56.5701 77.5847C56.5701 77.5911 56.5701 77.5975 56.5701 77.6039C56.5701 77.6103 56.5701 77.6167 56.5701 77.6231C56.5701 77.6294 56.5701 77.6358 56.5701 77.6422C56.5701 77.6486 56.5701 77.655 56.5701 77.6613C56.5701 77.6677 56.5701 77.6741 56.5701 77.6804C56.5701 77.6868 56.5701 77.6931 56.5701 77.6995C56.5701 77.7058 56.5701 77.7122 56.5701 77.7185C56.5701 77.7249 56.5701 77.7312 56.5701 77.7376C56.5701 77.7439 56.5701 77.7502 56.5701 77.7566C56.5701 77.7629 56.5701 77.7692 56.5701 77.7755C56.5701 77.7818 56.5701 77.7882 56.5701 77.7945C56.5701 77.8008 56.5701 77.8071 56.5701 77.8134C56.5701 77.8197 56.5701 77.826 56.5701 77.8323C56.5701 77.8386 56.5701 77.8449 56.5701 77.8511C56.5701 77.8574 56.5701 77.8637 56.5701 77.87C56.5701 77.8763 56.5701 77.8825 56.5701 77.8888C56.5701 77.8951 56.5701 77.9013 56.5701 77.9076C56.5701 77.9138 56.5701 77.9201 56.5701 77.9263C56.5701 77.9326 56.5701 77.9388 56.5701 77.9451C56.5701 77.9513 56.5701 77.9576 56.5701 77.9638C56.5701 77.97 56.5701 77.9763 56.5701 77.9825C56.5701 77.9887 56.5701 77.9949 56.5701 78.0011C56.5701 78.0074 56.5701 78.0136 56.5701 78.0198C56.5701 78.026 56.5701 78.0322 56.5701 78.0384C56.5701 78.0446 56.5701 78.0508 56.5701 78.057C56.5701 78.0632 56.5701 78.0694 56.5701 78.0755C56.5701 78.0817 56.5701 78.0879 56.5701 78.0941C56.5701 78.1002 56.5701 78.1064 56.5701 78.1126C56.5701 78.1187 56.5701 78.1249 56.5701 78.1311C56.5701 78.1372 56.5701 78.1434 56.5701 78.1495C56.5701 78.1557 56.5701 78.1618 56.5701 78.1679C56.5701 78.1741 56.5701 78.1802 56.5701 78.1864C56.5701 78.1925 56.5701 78.1986 56.5701 78.2047C56.5701 78.2109 56.5701 78.217 56.5701 78.2231C56.5701 78.2292 56.5701 78.2353 56.5701 78.2414C56.5701 78.2475 56.5701 78.2536 56.5701 78.2597C56.5701 78.2658 56.5701 78.2719 56.5701 78.278C56.5701 78.2841 56.5701 78.2902 56.5701 78.2962C56.5701 78.3023 56.5701 78.3084 56.5701 78.3145C56.5701 78.3205 56.5701 78.3266 56.5701 78.3327C56.5701 78.3387 56.5701 78.3448 56.5701 78.3509C56.5701 78.3569 56.5701 78.363 56.5701 78.369C56.5701 78.375 56.5701 78.3811 56.5701 78.3871C56.5701 78.3932 56.5701 78.3992 56.5701 78.4052C56.5701 78.4113 56.5701 78.4173 56.5701 78.4233C56.5701 78.4293 56.5701 78.4353 56.5701 78.4413C56.5701 78.4474 56.5701 78.4534 56.5701 78.4594C56.5701 78.4654 56.5701 78.4714 56.5701 78.4774C56.5701 78.4834 56.5701 78.4894 56.5701 78.4953C56.5701 78.5013 56.5701 78.5073 56.5701 78.5133C56.5701 78.5193 56.5701 78.5252 56.5701 78.5312C56.5701 78.5372 56.5701 78.5431 56.5701 78.5491C56.5701 78.5551 56.5701 78.561 56.5701 78.567C56.5701 78.5729 56.5701 78.5789 56.5701 78.5848C56.5701 78.5908 56.5701 78.5967 56.5701 78.6026C56.5701 78.6086 56.5701 78.6145 56.5701 78.6204C56.5701 78.6263 56.5701 78.6323 56.5701 78.6382C56.5701 78.6441 56.5701 78.65 56.5701 78.6559C56.5701 78.6618 56.5701 78.6677 56.5701 78.6736C56.5701 78.6795 56.5701 78.6854 56.5701 78.6913C56.5701 78.6972 56.5701 78.7031 56.5701 78.709C56.5701 78.7149 56.5701 78.7208 56.5701 78.7266C56.5701 78.7325 56.5701 78.7384 56.5701 78.7442C56.5701 78.7501 56.5701 78.756 56.5701 78.7618C56.5701 78.7677 56.5701 78.7735 56.5701 78.7794C56.5701 78.7852 56.5701 78.7911 56.5701 78.7969C56.5701 78.8028 56.5701 78.8086 56.5701 78.8144C56.5701 78.8203 56.5701 78.8261 56.5701 78.8319C56.5701 78.8378 56.5701 78.8436 56.5701 78.8494C56.5701 78.8552 56.5701 78.861 56.5701 78.8668C56.5701 78.8726 56.5701 78.8784 56.5701 78.8842C56.5701 78.89 56.5701 78.8958 56.5701 78.9016C56.5701 78.9074 56.5701 78.9132 56.5701 78.919C56.5701 78.9247 56.5701 78.9305 56.5701 78.9363C56.5701 78.9421 56.5701 78.9478 56.5701 78.9536C56.5701 78.9594 56.5701 78.9651 56.5701 78.9709C56.5701 78.9766 56.5701 78.9824 56.5701 78.9881C56.5701 78.9939 56.5701 78.9996 56.5701 79.0054C56.5701 79.0111 56.5701 79.0168 56.5701 79.0226C56.5701 79.0283 56.5701 79.034 56.5701 79.0398C56.5701 79.0455 56.5701 79.0512 56.5701 79.0569C56.5701 79.0626 56.5701 79.0683 56.5701 79.074C56.5701 79.0797 56.5701 79.0854 56.5701 79.0911C56.5701 79.0968 56.5701 79.1025 56.5701 79.1082C56.5701 79.1139 56.5701 79.1196 56.5701 79.1253C56.5701 79.1309 56.5701 79.1366 56.5701 79.1423C56.5701 79.148 56.5701 79.1536 56.5701 79.1593C56.5701 79.1649 56.5701 79.1706 56.5701 79.1763C56.5701 79.1819 56.5701 79.1876 56.5701 79.1932C56.5701 79.1989 56.5701 79.2045 56.5701 79.2101C56.5701 79.2158 56.5701 79.2214 56.5701 79.227C56.5701 79.2327 56.5701 79.2383 56.5701 79.2439C56.5701 79.2495 56.5701 79.2551 56.5701 79.2607C56.5701 79.2664 56.5701 79.272 56.5701 79.2776C56.5701 79.2832 56.5701 79.2888 56.5701 79.2944C56.5701 79.3 56.5701 79.3055 56.5701 79.3111C56.5701 79.3167 56.5701 79.3223 56.5701 79.3279C56.5701 79.3334 56.5701 79.339 56.5701 79.3446C56.5701 79.3502 56.5701 79.3557 56.5701 79.3613C56.5701 79.3668 56.5701 79.3724 56.5701 79.3779C56.5701 79.3835 56.5701 79.389 56.5701 79.3946C56.5701 79.4001 56.5701 79.4057 56.5701 79.4112C56.5701 79.4167 56.5701 79.4223 56.5701 79.4278C56.5701 79.4333 56.5701 79.4388 56.5701 79.4444C56.5701 79.4499 56.5701 79.4554 56.5701 79.4609C56.5701 79.4664 56.5701 79.4719 56.5701 79.4774C56.5701 79.4829 56.5701 79.4884 56.5701 79.4939C56.5701 79.4994 56.5701 79.5049 56.5701 79.5104C56.5701 79.5158 56.5701 79.5213 56.5701 79.5268C56.5701 79.5323 56.5701 79.5377 56.5701 79.5432C56.5701 79.5487 56.5701 79.5541 56.5701 79.5596C56.5701 79.5651 56.5701 79.5705 56.5701 79.576C56.5701 79.5814 56.5701 79.5869 56.5701 79.5923C56.5701 79.5977 56.5701 79.6032 56.5701 79.6086C56.5701 79.614 56.5701 79.6195 56.5701 79.6249C56.5701 79.6303 56.5701 79.6357 56.5701 79.6411C56.5701 79.6466 56.5701 79.652 56.5701 79.6574C56.5701 79.6628 56.5701 79.6682 56.5701 79.6736C56.5701 79.679 56.5701 79.6844 56.5701 79.6898C56.5701 79.6951 56.5701 79.7005 56.5701 79.7059C56.5701 79.7113 56.5701 79.7167 56.5701 79.722C56.5701 79.7274 56.5701 79.7328 56.5701 79.7382C56.5701 79.7435 56.5701 79.7489 56.5701 79.7542C56.5701 79.7596 56.5701 79.7649 56.5701 79.7703C56.5701 79.7756 56.5701 79.781 56.5701 79.7863C56.5701 79.7916 56.5701 79.797 56.5701 79.8023C56.5701 79.8076 56.5701 79.813 56.5701 79.8183C56.5701 79.8236 56.5701 79.8289 56.5701 79.8342C56.5701 79.8396 56.5701 79.8449 56.5701 79.8502C56.5701 79.8555 56.5701 79.8608 56.5701 79.8661C56.5701 79.8714 56.5701 79.8767 56.5701 79.8819C56.5701 79.8872 56.5701 79.8925 56.5701 79.8978C56.5701 79.9031 56.5701 79.9083 56.5701 79.9136C56.5701 79.9189 56.5701 79.9241 56.5701 79.9294C56.5701 79.9347 56.5701 79.9399 56.5701 79.9452C56.5701 79.9504 56.5701 79.9557 56.5701 79.9609C56.5701 79.9662 56.5701 79.9714 56.5701 79.9766C56.5701 79.9819 56.5701 79.9871 56.5701 79.9923C56.5701 79.9976 56.5701 80.0028 56.5701 80.008C56.5701 80.0132 56.5701 80.0184 56.5701 80.0237C56.5701 80.0289 56.5701 80.0341 56.5701 80.0393C56.5701 80.0445 56.5701 80.0497 56.5701 80.0549C56.5701 80.0601 56.5701 80.0652 56.5701 80.0704C56.5701 80.0756 56.5701 80.0808 56.5701 80.086C56.5701 80.0912 56.5701 80.0963 56.5701 80.1015C56.5701 80.1067 56.5701 80.1118 56.5701 80.117C56.5701 80.1221 56.5701 80.1273 56.5701 80.1324C56.5701 80.1376 56.5701 80.1427 56.5701 80.1479C56.5701 80.153 56.5701 80.1582 56.5701 80.1633C56.5701 80.1684 56.5701 80.1736 56.5701 80.1787C56.5701 80.1838 56.5701 80.1889 56.5701 80.1941C56.5701 80.1992 56.5701 80.2043 56.5701 80.2094C56.5701 80.2145 56.5701 80.2196 56.5701 80.2247C56.5701 80.2298 56.5701 80.2349 56.5701 80.24C56.5701 80.2451 56.5701 80.2502 56.5701 80.2552C56.5701 80.2603 56.5701 80.2654 56.5701 80.2705C56.5701 80.2756 56.5701 80.2806 56.5701 80.2857C56.5701 80.2908 56.5701 80.2958 56.5701 80.3009C56.5701 80.3059 56.5701 80.311 56.5701 80.316C56.5701 80.3211 56.5701 80.3261 56.5701 80.3312C56.5701 80.3362 56.5701 80.3412 56.5701 80.3463C56.5701 80.3513 56.5701 80.3563 56.5701 80.3614C56.5701 80.3664 56.5701 80.3714 56.5701 80.3764C56.5701 80.3814 56.5701 80.3864 56.5701 80.3914C56.5701 80.3964 56.5701 80.4014 56.5701 80.4064C56.5701 80.4114 56.5701 80.4164 56.5701 80.4214C56.5701 80.4264 56.5701 80.4314 56.5701 80.4364C56.5701 80.4414 56.5701 80.4463 56.5701 80.4513C56.5701 80.4563 56.5701 80.4612 56.5701 80.4662C56.5701 80.4712 56.5701 80.4761 56.5701 80.4811C56.5701 80.486 56.5701 80.491 56.5701 80.4959C56.5701 80.5009 56.5701 80.5058 56.5701 80.5108C56.5701 80.5157 56.5701 80.5206 56.5701 80.5256C56.5701 80.5305 56.5701 80.5354 56.5701 80.5403C56.5701 80.5453 56.5701 80.5502 56.5701 80.5551C56.5701 80.56 56.5701 80.5649 56.5701 80.5698C56.5701 80.5747 56.5701 80.5796 56.5701 80.5845C56.5701 80.5894 56.5701 80.5943 56.5701 80.5992C56.5701 80.6041 56.5701 80.609 56.5701 80.6138C56.5701 80.6187 56.5701 80.6236 56.5701 80.6284C56.5701 80.6333 56.5701 80.6382 56.5701 80.643C56.5701 80.6479 56.5701 80.6528 56.5701 80.6576C56.5701 80.6625 56.5701 80.6673 56.5701 80.6722C56.5701 80.677 56.5701 80.6818 56.5701 80.6867C56.5701 80.6915 56.5701 80.6963 56.5701 80.7012C56.5701 80.706 56.5701 80.7108 56.5701 80.7156C56.5701 80.7205 56.5701 80.7253 56.5701 80.7301C56.5701 80.7349 56.5701 80.7397 56.5701 80.7445C56.5701 80.7493 56.5701 80.7541 56.5701 80.7589C56.5701 80.7637 56.5701 80.7685 56.5701 80.7733C56.5701 80.778 56.5701 80.7828 56.5701 80.7876C56.5701 80.7924 56.5701 80.7971 56.5701 80.8019C56.5701 80.8067 56.5701 80.8114 56.5701 80.8162C56.5701 80.821 56.5701 80.8257 56.5701 80.8305C56.5701 80.8352 56.5701 80.84 56.5701 80.8447C56.5701 80.8494 56.5701 80.8542 56.5701 80.8589C56.5701 80.8636 56.5701 80.8684 56.5701 80.8731C56.5701 80.8778 56.5701 80.8825 56.5701 80.8873C56.5701 80.892 56.5701 80.8967 56.5701 80.9014C56.5701 80.9061 56.5701 80.9108 56.5701 80.9155C56.5701 80.9202 56.5701 80.9249 56.5701 80.9296C56.5701 80.9343 56.5701 80.939 56.5701 80.9436C56.5701 80.9483 56.5701 80.953 56.5701 80.9577C56.5701 80.9624 56.5701 80.967 56.5701 80.9717C56.5701 80.9764 56.5701 80.981 56.5701 80.9857C56.5701 80.9903 56.5701 80.995 56.5701 80.9996C56.5701 81.0043 56.5701 81.0089 56.5701 81.0136C56.5701 81.0182 56.5701 81.0228 56.5701 81.0275C56.5701 81.0321 56.5701 81.0367 56.5701 81.0413C56.5701 81.046 56.5701 81.0506 56.5701 81.0552C56.5701 81.0598 56.5701 81.0644 56.5701 81.069C56.5701 81.0736 56.5701 81.0782 56.5701 81.0828C56.5701 81.0874 56.5701 81.092 56.5701 81.0966C56.5701 81.1012 56.5701 81.1058 56.5701 81.1104C56.5701 81.1149 56.5701 81.1195 56.5701 81.1241C56.5701 81.1287 56.5701 81.1332 56.5701 81.1378C56.5701 81.1423 56.5701 81.1469 56.5701 81.1515C56.5701 81.156 56.5701 81.1606 56.5701 81.1651C56.5701 81.1697 56.5701 81.1742 56.5701 81.1787C56.5701 81.1833 56.5701 81.1878 56.5701 81.1923C56.5701 81.1969 56.5701 81.2014 56.5701 81.2059C56.5701 81.2104 56.5701 81.2149 56.5701 81.2195C56.5701 81.224 56.5701 81.2285 56.5701 81.233C56.5701 81.2375 56.5701 81.242 56.5701 81.2465C56.5701 81.251 56.5701 81.2555 56.5701 81.2599C56.5701 81.2644 56.5701 81.2689 56.5701 81.2734C56.5701 81.2779 56.5701 81.2823 56.5701 81.2868C56.5701 81.2913 56.5701 81.2957 56.5701 81.3002C56.5701 81.3047 56.5701 81.3091 56.5701 81.3136C56.5701 81.318 56.5701 81.3225 56.5701 81.3269C56.5701 81.3314 56.5701 81.3358 56.5701 81.3402C56.5701 81.3447 56.5701 81.3491 56.5701 81.3535C56.5701 81.3579 56.5701 81.3624 56.5701 81.3668C56.5701 81.3712 56.5701 81.3756 56.5701 81.38C56.5701 81.3844 56.5701 81.3888 56.5701 81.3932C56.5701 81.3976 56.5701 81.402 56.5701 81.4064C56.5701 81.4108 56.5701 81.4152 56.5701 81.4196C56.5701 81.424 56.5701 81.4284 56.5701 81.4327C56.5701 81.4371 56.5701 81.4415 56.5701 81.4458C56.5701 81.4502 56.5701 81.4546 56.5701 81.4589C56.5701 81.4633 56.5701 81.4676 56.5701 81.472C56.5701 81.4763 56.5701 81.4807 56.5701 81.485C56.5701 81.4894 56.5701 81.4937 56.5701 81.498C56.5701 81.5024 56.5701 81.5067 56.5701 81.511C56.5701 81.5153 56.5701 81.5197 56.5701 81.524C56.5701 81.5283 56.5701 81.5326 56.5701 81.5369C56.5701 81.5412 56.5701 81.5455 56.5701 81.5498C56.5701 81.5541 56.5701 81.5584 56.5701 81.5627C56.5701 81.567 56.5701 81.5713 56.5701 81.5756C56.5701 81.5798 56.5701 81.5841 56.5701 81.5884C56.5701 81.5927 56.5701 81.5969 56.5701 81.6012C56.5701 81.6055 56.5701 81.6097 56.5701 81.614C56.5701 81.6182 56.5701 81.6225 56.5701 81.6267C56.5701 81.631 56.5701 81.6352 56.5701 81.6395C56.5701 81.6437 56.5701 81.6479 56.5701 81.6522C56.5701 81.6564 56.5701 81.6606 56.5701 81.6648C56.5701 81.6691 56.5701 81.6733 56.5701 81.6775C56.5701 81.6817 56.5701 81.6859 56.5701 81.6901C56.5701 81.6943 56.5701 81.6985 56.5701 81.7027C56.5701 81.7069 56.5701 81.7111 56.5701 81.7153C56.5701 81.7195 56.5701 81.7237 56.5701 81.7278C56.5701 81.732 56.5701 81.7362 56.5701 81.7404C56.5701 81.7445 56.5701 81.7487 56.5701 81.7529C56.5701 81.757 56.5701 81.7612 56.5701 81.7653C56.5701 81.7695 56.5701 81.7736 56.5701 81.7778C56.5701 81.7819 56.5701 81.7861 56.5701 81.7902C56.5701 81.7944 56.5701 81.7985 56.5701 81.8026C56.5701 81.8067 56.5701 81.8109 56.5701 81.815C56.5701 81.8191 56.5701 81.8232 56.5701 81.8273C56.5701 81.8314 56.5701 81.8355 56.5701 81.8396C56.5701 81.8438 56.5701 81.8478 56.5701 81.8519C56.5701 81.856 56.5701 81.8601 56.5701 81.8642C56.5701 81.8683 56.5701 81.8724 56.5701 81.8765C56.5701 81.8805 56.5701 81.8846 56.5701 81.8887C56.5701 81.8927 56.5701 81.8968 56.5701 81.9009C56.5701 81.9049 56.5701 81.909 56.5701 81.913C56.5701 81.9171 56.5701 81.9211 56.5701 81.9252C56.5701 81.9292 56.5701 81.9333 56.5701 81.9373C56.5701 81.9413 56.5701 81.9454 56.5701 81.9494C56.5701 81.9534 56.5701 81.9574 56.5701 81.9614C56.5701 81.9655 56.5701 81.9695 56.5701 81.9735C56.5701 81.9775 56.5701 81.9815 56.5701 81.9855C56.5701 81.9895 56.5701 81.9935 56.5701 81.9975C56.5701 82.0015 56.5701 82.0055 56.5701 82.0094C56.5701 82.0134 56.5701 82.0174 56.5701 82.0214C56.5701 82.0254 56.5701 82.0293 56.5701 82.0333C56.5701 82.0373 56.5701 82.0412 56.5701 82.0452C56.5701 82.0491 56.5701 82.0531 56.5701 82.057C56.5701 82.061 56.5701 82.0649 56.5701 82.0689C56.5701 82.0728 56.5701 82.0767 56.5701 82.0807C56.5701 82.0846 56.5701 82.0885 56.5701 82.0925C56.5701 82.0964 56.5701 82.1003 56.5701 82.1042C56.5701 82.1081 56.5701 82.112 56.5701 82.1159C56.5701 82.1199 56.5701 82.1238 56.5701 82.1277C56.5701 82.1316 56.5701 82.1354 56.5701 82.1393C56.5701 82.1432 56.5701 82.1471 56.5701 82.151C56.5701 82.1549 56.5701 82.1587 56.5701 82.1626C56.5701 82.1665 56.5701 82.1704 56.5701 82.1742C56.5701 82.1781 56.5701 82.1819 56.5701 82.1858C56.5701 82.1897 56.5701 82.1935 56.5701 82.1974C56.5701 82.2012 56.5701 82.205 56.5701 82.2089C56.5701 82.2127 56.5701 82.2166 56.5701 82.2204C56.5701 82.2242 56.5701 82.228 56.5701 82.2319C56.5701 82.2357 56.5701 82.2395 56.5701 82.2433C56.5701 82.2471 56.5701 82.2509 56.5701 82.2547C56.5701 82.2585 56.5701 82.2623 56.5701 82.2661C56.5701 82.2699 56.5701 82.2737 56.5701 82.2775C56.5701 82.2813 56.5701 82.2851 56.5701 82.2889C56.5701 82.2926 56.5701 82.2964 56.5701 82.3002C56.5701 82.3039 56.5701 82.3077 56.5701 82.3115C56.5701 82.3152 56.5701 82.319 56.5701 82.3227C56.5701 82.3265 56.5701 82.3303 56.5701 82.334C56.5701 82.3377 56.5701 82.3415 56.5701 82.3452C56.5701 82.349 56.5701 82.3527 56.5701 82.3564C56.5701 82.3601 56.5701 82.3639 56.5701 82.3676C56.5701 82.3713 56.5701 82.375 56.5701 82.3787C56.5701 82.3824 56.5701 82.3861 56.5701 82.3898C56.5701 82.3935 56.5701 82.3972 56.5701 82.4009C56.5701 82.4046 56.5701 82.4083 56.5701 82.412C56.5701 82.4157 56.5701 82.4194 56.5701 82.423C56.5701 82.4267 56.5701 82.4304 56.5701 82.4341C56.5701 82.4377 56.5701 82.4414 56.5701 82.445C56.5701 82.4487 56.5701 82.4524 56.5701 82.456C56.5701 82.4597 56.5701 82.4633 56.5701 82.467C56.5701 82.4706 56.5701 82.4742 56.5701 82.4779C56.5701 82.4815 56.5701 82.4851 56.5701 82.4888C56.5701 82.4924 56.5701 82.496 56.5701 82.4996C56.5701 82.5032 56.5701 82.5068 56.5701 82.5105C56.5701 82.5141 56.5701 82.5177 56.5701 82.5213C56.5701 82.5249 56.5701 82.5285 56.5701 82.532C56.5701 82.5356 56.5701 82.5392 56.5701 82.5428C56.5701 82.5464 56.5701 82.55 56.5701 82.5535C56.5701 82.5571 56.5701 82.5607 56.5701 82.5643C56.5701 82.5678 56.5701 82.5714 56.5701 82.5749C56.5701 82.5785 56.5701 82.582 56.5701 82.5856C56.5701 82.5891 56.5701 82.5927 56.5701 82.5962C56.5701 82.5998 56.5701 82.6033 56.5701 82.6068C56.5701 82.6104 56.5701 82.6139 56.5701 82.6174C56.5701 82.6209 56.5701 82.6245 56.5701 82.628C56.5701 82.6315 56.5701 82.635 56.5701 82.6385C56.5701 82.642 56.5701 82.6455 56.5701 82.649C56.5701 82.6525 56.5701 82.656 56.5701 82.6595C56.5701 82.663 56.5701 82.6665 56.5701 82.6699C56.5701 82.6734 56.5701 82.6769 56.5701 82.6804C56.5701 82.6838 56.5701 82.6873 56.5701 82.6908C56.5701 82.6942 56.5701 82.6977 56.5701 82.7011C56.5701 82.7046 56.5701 82.708 56.5701 82.7115C56.5701 82.7149 56.5701 82.7184 56.5701 82.7218C56.5701 82.7253 56.5701 82.7287 56.5701 82.7321C56.5701 82.7355 56.5701 82.739 56.5701 82.7424C56.5701 82.7458 56.5701 82.7492 56.5701 82.7526C56.5701 82.7561 56.5701 82.7595 56.5701 82.7629C56.5701 82.7663 56.5701 82.7697 56.5701 82.7731C56.5701 82.7765 56.5701 82.7798 56.5701 82.7832C56.5701 82.7866 56.5701 82.79 56.5701 82.7934C56.5701 82.7968 56.5701 82.8001 56.5701 82.8035C56.5701 82.8069 56.5701 82.8102 56.5701 82.8136C56.5701 82.817 56.5701 82.8203 56.5701 82.8237C56.5701 82.827 56.5701 82.8304 56.5701 82.8337C56.5701 82.8371 56.5701 82.8404 56.5701 82.8437C56.5701 82.8471 56.5701 82.8504 56.5701 82.8537C56.5701 82.857 56.5701 82.8604 56.5701 82.8637C56.5701 82.867 56.5701 82.8703 56.5701 82.8736C56.5701 82.8769 56.5701 82.8802 56.5701 82.8835C56.5701 82.8868 56.5701 82.8901 56.5701 82.8934C56.5701 82.8967 56.5701 82.9 56.5701 82.9033C56.5701 82.9066 56.5701 82.9099 56.5701 82.9131C56.5701 82.9164 56.5701 82.9197 56.5701 82.923C56.5701 82.9262 56.5701 82.9295 56.5701 82.9327C56.5701 82.936 56.5701 82.9393 56.5701 82.9425C56.5701 82.9458 56.5701 82.949 56.5701 82.9522C56.5701 82.9555 56.5701 82.9587 56.5701 82.962C56.5701 82.9652 56.5701 82.9684 56.5701 82.9716C56.5701 82.9749 56.5701 82.9781 56.5701 82.9813C56.5701 82.9845 56.5701 82.9877 56.5701 82.9909C56.5701 82.9941 56.5701 82.9973 56.5701 83.0005C56.5701 83.0037 56.5701 83.0069 56.5701 83.0101C56.5701 83.0133 56.5701 83.0165 56.5701 83.0197C56.5701 83.0229 56.5701 83.026 56.5701 83.0292C56.5701 83.0324 56.5701 83.0356 56.5701 83.0387C56.5701 83.0419 56.5701 83.0451 56.5701 83.0482C56.5701 83.0514 56.5701 83.0545 56.5701 83.0577C56.5701 83.0608 56.5701 83.064 56.5701 83.0671C56.5701 83.0702 56.5701 83.0734 56.5701 83.0765C56.5701 83.0796 56.5701 83.0828 56.5701 83.0859C56.5701 83.089 56.5701 83.0921 56.5701 83.0952C56.5701 83.0983 56.5701 83.1015 56.5701 83.1046C56.5701 83.1077 56.5701 83.1108 56.5701 83.1139C56.5701 83.117 56.5701 83.1201 56.5701 83.1231C56.5701 83.1262 56.5701 83.1293 56.5701 83.1324C56.5701 83.1355 56.5701 83.1385 56.5701 83.1416C56.5701 83.1447 56.5701 83.1478 56.5701 83.1508C56.5701 83.1539 56.5701 83.1569 56.5701 83.16C56.5701 83.1631 56.5701 83.1661 56.5701 83.1691C56.5701 83.1722 56.5701 83.1752 56.5701 83.1783C56.5701 83.1813 56.5701 83.1843 56.5701 83.1874C56.5701 83.1904 56.5701 83.1934 56.5701 83.1964C56.5701 83.1995 56.5701 83.2025 56.5701 83.2055C56.5701 83.2085 56.5701 83.2115 56.5701 83.2145C56.5701 83.2175 56.5701 83.2205 56.5701 83.2235C56.5701 83.2265 56.5701 83.2295 56.5701 83.2325C56.5701 83.2355 56.5701 83.2384 56.5701 83.2414C56.5701 83.2444 56.5701 83.2474 56.5701 83.2503C56.5701 83.2533 56.5701 83.2563 56.5701 83.2592C56.5701 83.2622 56.5701 83.2651 56.5701 83.2681C56.5701 83.2711 56.5701 83.274 56.5701 83.2769C56.5701 83.2799 56.5701 83.2828 56.5701 83.2858C56.5701 83.2887 56.5701 83.2916 56.5701 83.2945C56.5701 83.2975 56.5701 83.3004 56.5701 83.3033C56.5701 83.3062 56.5701 83.3091 56.5701 83.3121C56.5701 83.315 56.5701 83.3179 56.5701 83.3208C56.5701 83.3237 56.5701 83.3266 56.5701 83.3295C56.5701 83.3323 56.5701 83.3352 56.5701 83.3381C56.5701 83.341 56.5701 83.3439 56.5701 83.3468C56.5701 83.3496 56.5701 83.3525 56.5701 83.3554C56.5701 83.3582 56.5701 83.3611 56.5701 83.364C56.5701 83.3668 56.5701 83.3697 56.5701 83.3725C56.5701 83.3754 56.5701 83.3782 56.5701 83.3811C56.5701 83.3839 56.5701 83.3867 56.5701 83.3896C56.5701 83.3924 56.5701 83.3952 56.5701 83.398C56.5701 83.4009 56.5701 83.4037 56.5701 83.4065C56.5701 83.4093 56.5701 83.4121 56.5701 83.4149C56.5701 83.4177 56.5701 83.4205 56.5701 83.4233C56.5701 83.4261 56.5701 83.4289 56.5701 83.4317C56.5701 83.4345 56.5701 83.4373 56.5701 83.4401C56.5701 83.4429 56.5701 83.4456 56.5701 83.4484C56.5701 83.4512 56.5701 83.454 56.5701 83.4567C56.5701 83.4595 56.5701 83.4622 56.5701 83.465C56.5701 83.4678 56.5701 83.4705 56.5701 83.4733C56.5701 83.476 56.5701 83.4787 56.5701 83.4815C56.5701 83.4842 56.5701 83.487 56.5701 83.4897C56.5701 83.4924 56.5701 83.4951 56.5701 83.4979C56.5701 83.5006 56.5701 83.5033 56.5701 83.506C56.5701 83.5087 56.5701 83.5114 56.5701 83.5141C56.5701 83.5168 56.5701 83.5195 56.5701 83.5222C56.5701 83.5249 56.5701 83.5276 56.5701 83.5303C56.5701 83.533 56.5701 83.5357 56.5701 83.5384C56.5701 83.541 56.5701 83.5437 56.5701 83.5464C56.5701 83.5491 56.5701 83.5517 56.5701 83.5544C56.5701 83.5571 56.5701 83.5597 56.5701 83.5624C56.5701 83.565 56.5701 83.5677 56.5701 83.5703H67.3205ZM67.3205 76.1562C67.3205 72.5324 67.3541 68.5318 67.4214 64.153L56.6723 63.9876C56.6043 68.4109 56.5701 72.4676 56.5701 76.1562H67.3205ZM67.4195 64.2356C67.5538 59.8715 67.7212 55.9598 67.921 52.4971L57.1884 51.8779C56.9819 55.4568 56.8108 59.4671 56.6742 63.905L67.4195 64.2356ZM58.4363 48.7333C56.7701 50.7198 55.2459 52.3629 53.8627 53.686L61.2936 61.4547C63.025 59.7986 64.8184 57.8531 66.6731 55.6417L58.4363 48.7333ZM53.7773 53.7695C52.3449 55.2018 50.954 56.5276 49.6046 57.7485L56.8172 65.7203C58.3116 64.3683 59.8322 62.9179 61.379 61.3712L53.7773 53.7695ZM49.7895 57.5887L32.9301 71.5028L39.773 79.7941L56.6324 65.8801L49.7895 57.5887ZM40.5213 72.2564L19.701 46.6626L11.3615 53.4467L32.1818 79.0405L40.5213 72.2564ZM18.9264 54.2219L69.9108 12.6828L63.1204 4.34843L12.1361 45.8875L18.9264 54.2219ZM66.5156 13.8908H102.672V3.14042H66.5156V13.8908ZM97.2967 8.51562V157H108.047V8.51562H97.2967Z" fill="#0243C8" mask="url(#path-1-outside-1_9993_1541)"/>
</g>
</svg>
