<svg width="152" height="160" viewBox="0 0 152 160" fill="none" xmlns="http://www.w3.org/2000/svg">
<g style="mix-blend-mode:multiply" opacity="0.35">
<mask id="path-1-outside-1_9993_1630" maskUnits="userSpaceOnUse" x="15" y="1" width="119" height="164" fill="black">
<rect fill="white" x="15" y="1" width="119" height="164"/>
<path d="M123.977 40.7109C123.977 47.7526 122.453 53.8464 119.406 58.9922C116.427 64.0703 112.432 68.2344 107.422 71.4844C102.479 74.7344 97.0625 77.1719 91.1719 78.7969V79.4062C103.021 80.8958 112.161 84.5182 118.594 90.2734C125.094 95.9609 128.344 104.052 128.344 114.547C128.344 122.672 126.177 130.12 121.844 136.891C117.51 143.594 110.773 148.977 101.633 153.039C92.4922 157.034 80.7448 159.031 66.3906 159.031C56.776 159.031 48.5833 158.32 41.8125 156.898C35.0417 155.477 28.474 153.513 22.1094 151.008V117.695C28.5417 121.013 35.1432 123.484 41.9141 125.109C48.7526 126.667 54.9818 127.445 60.6016 127.445C70.3516 127.445 76.987 126.057 80.5078 123.281C84.0964 120.505 85.8906 116.781 85.8906 112.109C85.8906 108.724 85.0443 105.846 83.3516 103.477C81.6589 101.107 78.5104 99.2786 73.9062 97.9922C69.3698 96.7057 62.8359 96.0625 54.3047 96.0625H45.1641V65.8984H54.5078C62.0911 65.8984 68.0833 65.2214 72.4844 63.8672C76.9531 62.513 80.1693 60.6849 82.1328 58.3828C84.0964 56.013 85.0781 53.3047 85.0781 50.2578C85.0781 46.3307 83.5547 43.4193 80.5078 41.5234C77.4609 39.6276 73.4323 38.6797 68.4219 38.6797C63.9531 38.6797 59.7552 39.2891 55.8281 40.5078C51.901 41.7266 48.4818 43.0807 45.5703 44.5703C42.6589 46.0599 40.4583 47.2786 38.9688 48.2266L22.3125 21.4141C28.474 17.2161 35.5156 13.6615 43.4375 10.75C51.4271 7.83854 61.8542 6.38281 74.7188 6.38281C90.0208 6.38281 102.039 9.42969 110.773 15.5234C119.576 21.6172 123.977 30.013 123.977 40.7109Z"/>
</mask>
<path d="M119.406 58.9922L114.781 56.2536L114.775 56.2629L114.77 56.2723L119.406 58.9922ZM107.422 71.4844L104.497 66.9748L104.483 66.9839L104.469 66.9931L107.422 71.4844ZM91.1719 78.7969L89.7425 73.6152L85.7967 74.7037V78.7969H91.1719ZM91.1719 79.4062H85.7967V84.148L90.5014 84.7395L91.1719 79.4062ZM118.594 90.2734L115.01 94.2793L115.032 94.2991L115.054 94.3187L118.594 90.2734ZM121.844 136.891L126.358 139.809L126.365 139.799L126.371 139.788L121.844 136.891ZM101.633 153.039L103.785 157.964L103.801 157.958L103.816 157.951L101.633 153.039ZM41.8125 156.898L40.7078 162.159L41.8125 156.898ZM22.1094 151.008H16.7342V154.669L20.1406 156.009L22.1094 151.008ZM22.1094 117.695L24.5734 112.918L16.7342 108.875V117.695H22.1094ZM41.9141 125.109L40.6596 130.336L40.6901 130.343L40.7206 130.35L41.9141 125.109ZM80.5078 123.281L77.2189 119.03L77.1992 119.045L77.1797 119.06L80.5078 123.281ZM83.3516 103.477L78.9776 106.601L83.3516 103.477ZM73.9062 97.9922L72.4398 103.163L72.4498 103.166L72.4598 103.169L73.9062 97.9922ZM45.1641 96.0625H39.7889V101.438H45.1641V96.0625ZM45.1641 65.8984V60.5232H39.7889V65.8984H45.1641ZM72.4844 63.8672L70.9255 58.723L70.9146 58.7263L70.9036 58.7297L72.4844 63.8672ZM82.1328 58.3828L86.2225 61.871L86.2474 61.8418L86.2718 61.8123L82.1328 58.3828ZM38.9688 48.2266L34.4028 51.063L37.2702 55.6787L41.8546 52.7614L38.9688 48.2266ZM22.3125 21.4141L19.286 16.9719L15.0274 19.8733L17.7466 24.2505L22.3125 21.4141ZM43.4375 10.75L41.5971 5.69967L41.5902 5.7022L41.5833 5.70474L43.4375 10.75ZM110.773 15.5234L107.698 19.9318L107.706 19.9374L107.714 19.9429L110.773 15.5234ZM118.601 40.7109C118.601 46.9616 117.256 52.0738 114.781 56.2536L124.031 61.7308C127.65 55.6189 129.352 48.5436 129.352 40.7109H118.601ZM114.77 56.2723C112.22 60.6181 108.816 64.1733 104.497 66.9748L110.347 75.994C116.049 72.2955 120.634 67.5225 124.042 61.7121L114.77 56.2723ZM104.469 66.9931C100.01 69.9248 95.1103 72.1344 89.7425 73.6152L92.6013 83.9785C99.0147 82.2093 104.948 79.544 110.375 75.9757L104.469 66.9931ZM85.7967 78.7969V79.4062H96.5471V78.7969H85.7967ZM90.5014 84.7395C101.67 86.1436 109.649 89.4831 115.01 94.2793L122.178 86.2676C114.674 79.5534 104.371 75.6481 91.8423 74.073L90.5014 84.7395ZM115.054 94.3187C120.14 98.7684 122.969 105.239 122.969 114.547H133.719C133.719 102.865 130.048 93.1534 122.133 86.2282L115.054 94.3187ZM122.969 114.547C122.969 121.657 121.09 128.097 117.316 133.993L126.371 139.788C131.264 132.143 133.719 123.687 133.719 114.547H122.969ZM117.33 133.972C113.691 139.601 107.877 144.381 99.4497 148.127L103.816 157.951C113.669 153.572 121.33 147.587 126.358 139.809L117.33 133.972ZM99.4802 148.114C91.2479 151.712 80.3039 153.656 66.3906 153.656V164.406C81.1857 164.406 93.7364 162.356 103.785 157.964L99.4802 148.114ZM66.3906 153.656C57.0153 153.656 49.2151 152.961 42.9172 151.638L40.7078 162.159C47.9516 163.68 56.5368 164.406 66.3906 164.406V153.656ZM42.9172 151.638C36.4377 150.277 30.1592 148.4 24.0781 146.006L20.1406 156.009C26.7887 158.626 33.6456 160.676 40.7078 162.159L42.9172 151.638ZM27.4846 151.008V117.695H16.7342V151.008H27.4846ZM19.6454 122.472C26.4462 125.98 33.4528 128.607 40.6596 130.336L43.1685 119.883C36.8337 118.362 30.6371 116.046 24.5734 112.918L19.6454 122.472ZM40.7206 130.35C47.8587 131.976 54.4957 132.821 60.6016 132.821V122.07C55.4679 122.07 49.6466 121.357 43.1076 119.868L40.7206 130.35ZM60.6016 132.821C65.7003 132.821 70.1922 132.46 73.9912 131.666C77.7421 130.881 81.175 129.6 83.8359 127.502L77.1797 119.06C76.3198 119.738 74.6746 120.54 71.79 121.143C68.9537 121.736 65.2528 122.07 60.6016 122.07V132.821ZM83.7968 127.533C88.7463 123.704 91.2658 118.387 91.2658 112.109H80.5154C80.5154 115.175 79.4465 117.306 77.2189 119.03L83.7968 127.533ZM91.2658 112.109C91.2658 107.792 90.1708 103.776 87.7255 100.352L78.9776 106.601C79.9178 107.917 80.5154 109.656 80.5154 112.109H91.2658ZM87.7255 100.352C84.9886 96.5205 80.4381 94.2362 75.3527 92.8153L72.4598 103.169C76.5827 104.321 78.3291 105.693 78.9776 106.601L87.7255 100.352ZM75.3727 92.8209C70.1207 91.3315 63.0005 90.6873 54.3047 90.6873V101.438C62.6713 101.438 68.6189 102.08 72.4398 103.163L75.3727 92.8209ZM54.3047 90.6873H45.1641V101.438H54.3047V90.6873ZM50.5393 96.0625V65.8984H39.7889V96.0625H50.5393ZM45.1641 71.2736H54.5078V60.5232H45.1641V71.2736ZM54.5078 71.2736C62.3283 71.2736 68.9287 70.5852 74.0651 69.0047L70.9036 58.7297C67.238 59.8576 61.854 60.5232 54.5078 60.5232V71.2736ZM74.0432 69.0114C79.0023 67.5086 83.3206 65.2732 86.2225 61.871L78.0432 54.8946C77.0179 56.0966 74.904 57.5174 70.9255 58.723L74.0432 69.0114ZM86.2718 61.8123C89.0255 58.4889 90.4533 54.5707 90.4533 50.2578H79.7029C79.7029 52.0387 79.1672 53.5372 77.9938 54.9533L86.2718 61.8123ZM90.4533 50.2578C90.4533 44.6833 88.1415 39.9425 83.3475 36.9596L77.6681 46.0873C78.9679 46.8961 79.7029 47.9781 79.7029 50.2578H90.4533ZM83.3475 36.9596C79.1744 34.363 74.0552 33.3045 68.4219 33.3045V44.0549C72.8093 44.0549 75.7474 44.8922 77.6681 46.0873L83.3475 36.9596ZM68.4219 33.3045C63.4596 33.3045 58.7207 33.982 54.2349 35.3741L57.4213 45.6415C60.7898 44.5961 64.4467 44.0549 68.4219 44.0549V33.3045ZM54.2349 35.3741C50.0847 36.6621 46.3673 38.1247 43.122 39.785L48.0186 49.3556C50.5962 48.0368 53.7174 46.791 57.4213 45.6415L54.2349 35.3741ZM43.122 39.785C40.1639 41.2985 37.7866 42.6076 36.0829 43.6917L41.8546 52.7614C43.1301 51.9497 45.1538 50.8213 48.0186 49.3556L43.122 39.785ZM43.5347 45.3902L26.8784 18.5777L17.7466 24.2505L34.4028 51.063L43.5347 45.3902ZM25.339 25.8562C31.0917 21.9368 37.7304 18.5742 45.2917 15.7953L41.5833 5.70474C33.3008 8.74872 25.8562 12.4955 19.286 16.9719L25.339 25.8562ZM45.2779 15.8003C52.4566 13.1844 62.1931 11.758 74.7188 11.758V1.00761C61.5152 1.00761 50.3976 2.49273 41.5971 5.69967L45.2779 15.8003ZM74.7188 11.758C89.3814 11.758 100.181 14.6876 107.698 19.9318L113.849 11.1151C103.897 4.17176 90.6603 1.00761 74.7188 1.00761V11.758ZM107.714 19.9429C115.067 25.0335 118.601 31.7784 118.601 40.7109H129.352C129.352 28.2476 124.084 18.2009 113.833 11.104L107.714 19.9429Z" fill="#453A93" mask="url(#path-1-outside-1_9993_1630)"/>
</g>
</svg>
