<svg version="1.2" xmlns="http://www.w3.org/2000/svg" viewBox="0 0 140 168" width="140" height="168">
	<title>3-svg</title>
	<defs>
		<clipPath clipPathUnits="userSpaceOnUse" id="cp1">
			<path d="m15 1h119v164h-119zm95.77 14.52q-13.1-9.14-36.05-9.14-19.3 0-31.28 4.37-11.89 4.37-21.13 10.66l16.66 26.82q2.23-1.43 6.6-3.66 4.37-2.23 10.26-4.06 5.89-1.83 12.59-1.83 7.52 0 12.09 2.84 4.57 2.85 4.57 8.74 0 4.57-2.95 8.12-2.94 3.46-9.65 5.49-6.6 2.03-17.97 2.03h-9.35v30.16h9.14q12.8 0 19.61 1.93 6.9 1.93 9.44 5.49 2.54 3.55 2.54 8.63 0 7.01-5.38 11.17-5.28 4.16-19.91 4.16-8.43 0.01-18.69-2.33-10.15-2.44-19.8-7.42v33.32q9.55 3.76 19.7 5.89 10.16 2.13 24.58 2.13 21.53 0 35.24-5.99 13.71-6.09 20.21-16.15 6.5-10.16 6.5-22.34 0-15.75-9.75-24.28-9.64-8.63-27.42-10.86v-0.61q8.84-2.44 16.25-7.32 7.52-4.87 11.99-12.49 4.57-7.72 4.57-18.28 0-16.05-13.21-25.19z"/>
		</clipPath>
	</defs>
	<style>
		.s0 { mix-blend-mode: multiply;fill: #453a93 } 
	</style>
	<g id="Layer" style="opacity: .3">
		<g id="Clip-Path" clip-path="url(#cp1)">
			<path id="Layer" fill-rule="evenodd" class="s0" d="m114.8 56.3c2.5-4.2 3.8-9.3 3.8-15.6 0-8.9-3.5-15.7-10.9-20.8l3.1-4.4-0.1 0.1-3 4.3c-7.5-5.2-18.3-8.1-33-8.1-12.5 0-22.2 1.4-29.4 4q-8.6 3.2-15.6 7.3l11.1 17.9q1.1-0.6 2.3-1.2 4.9-2.5 11.1-4.4 6.8-2.1 14.2-2.1c5.7 0 10.8 1.1 14.9 3.7 4.8 2.9 7.2 7.7 7.2 13.3 0 4.3-1.5 8.2-4.2 11.5h-0.1v0.1c-2.9 3.4-7.2 5.6-12.1 7.1-5.2 1.6-11.8 2.3-19.6 2.3h-4v19.4h3.8c8.7 0 15.8 0.6 21.1 2.1 5 1.4 9.6 3.7 12.3 7.6 2.5 3.4 3.6 7.4 3.6 11.7 0 6.3-2.6 11.6-7.5 15.4-2.7 2.1-6.1 3.4-9.8 4.2-3.8 0.8-8.3 1.1-13.4 1.1-6.1 0-12.7-0.8-19.9-2.4v-0.1q-6.7-1.6-13.2-4.2v21.2q7.5 2.7 15.4 4.3c6.3 1.4 14.1 2.1 23.5 2.1 13.9 0 24.8-2 33-5.6 8.5-3.7 14.3-8.5 17.9-14.1 3.8-5.9 5.7-12.3 5.7-19.5 0-9.3-2.9-15.7-7.9-20.2h-0.1c-5.4-4.8-13.3-8.2-24.5-9.6l-4.7-0.6v-9.4l3.9-1.1 1.5 5.2-1.5-5.2q8.1-2.2 14.8-6.6c4.3-2.8 7.7-6.4 10.3-10.7zm9.2 5.4c-3.4 5.8-8 10.6-13.6 14.3q-1.4 0.9-2.9 1.7c5.7 2.1 10.6 4.9 14.7 8.6 7.9 6.9 11.5 16.6 11.5 28.3 0 9.1-2.4 17.6-7.3 25.2l-4.5-2.9 4.5 2.9c-5.1 7.8-12.7 13.8-22.6 18.2l-2.2-4.9v-0.1l2.2 5c-10.1 4.4-22.6 6.4-37.4 6.4-9.9 0-18.5-0.7-25.7-2.2q-10.6-2.3-20.6-6.2l-3.4-1.3v-45.8l7.9 4q9 4.7 18.5 7c6.5 1.5 12.4 2.2 17.5 2.2 4.6 0 8.3-0.4 11.2-0.9 2.9-0.7 4.5-1.5 5.4-2.1v-0.1c2.2-1.7 3.3-3.8 3.3-6.9 0-2.4-0.6-4.2-1.5-5.5-0.7-0.9-2.4-2.3-6.5-3.4l1.4-5.2-1.5 5.2c-3.8-1.1-9.7-1.8-18.1-1.8h-14.5v-40.9h14.7c7.3 0 12.7-0.6 16.4-1.8l1.6 5.2-1.6-5.2c4-1.2 6.1-2.6 7.1-3.8 1.2-1.4 1.7-2.9 1.7-4.6 0-2.3-0.7-3.4-2-4.2-2-1.2-4.9-2-9.3-2q-5.9 0-11 1.6-5.5 1.7-9.4 3.7c-2.9 1.4-4.9 2.6-6.2 3.4l-4.5 2.9-2.9-4.6 4.6-2.9-4.6 2.9-16.7-26.8-2.7-4.4 4.3-2.9 3 4.4-3-4.4q9.8-6.7 22.3-11.3l1.8 5.1-1.8-5.1c8.8-3.2 19.9-4.7 33.1-4.7 16 0 29.2 3.2 39.1 10.1 10.3 7.1 15.5 17.2 15.5 29.6 0 7.9-1.7 14.9-5.3 21zm-51.5 41.5h-0.1l1.5-5.2zm-30.9-97.5l1.9 5.1zm0.2 151.2l-1.1 5.2zm41.5-53.4l-4.3 3.1z"/>
		</g>
	</g>
</svg>